<?xml version="1.0" standalone="no"?>
<!DOCTYPE svg PUBLIC "-//W3C//DTD SVG 20010904//EN"
 "http://www.w3.org/TR/2001/REC-SVG-20010904/DTD/svg10.dtd">
<svg version="1.0" xmlns="http://www.w3.org/2000/svg"
 width="1050.000000pt" height="1050.000000pt" viewBox="0 0 1050.000000 1050.000000"
 preserveAspectRatio="xMidYMid meet">
<metadata>
Created by potrace 1.11, written by Peter Selinger 2001-2013
</metadata>
<g transform="translate(0.000000,1050.000000) scale(0.100000,-0.100000)"
fill="#000000" stroke="none">
<path d="M3875 10196 c-49 -18 -175 -73 -280 -121 -104 -48 -237 -104 -295
-124 l-105 -36 -247 -3 c-137 -2 -248 -7 -248 -11 0 -11 209 -201 750 -682
582 -517 624 -556 742 -685 325 -354 452 -559 754 -1222 140 -308 144 -318
144 -384 0 -37 4 -68 8 -68 19 0 97 78 184 183 51 62 122 141 158 176 98 96
263 215 375 271 142 71 205 85 650 146 185 25 439 94 660 179 400 154 585 316
902 790 192 287 340 690 387 1055 18 142 31 390 21 390 -14 0 -98 -73 -236
-205 -156 -150 -239 -204 -436 -285 -240 -99 -353 -117 -804 -130 -424 -13
-532 -27 -767 -105 -496 -165 -714 -394 -898 -945 -32 -96 -80 -217 -106 -269
l-48 -94 0 -134 0 -134 -35 27 c-44 33 -164 182 -242 299 -311 469 -643 1207
-776 1730 -36 140 -67 321 -67 389 0 33 -2 36 -27 36 -16 -1 -68 -16 -118 -34z"/>
<path d="M6707 7269 c-60 -14 -177 -71 -263 -129 -93 -63 -159 -113 -354 -274
-277 -228 -413 -321 -560 -380 l-75 -31 -210 0 c-188 0 -218 2 -288 23 -155
44 -290 126 -547 327 -200 156 -232 179 -371 263 -227 138 -313 162 -604 169
-355 9 -546 -18 -721 -102 -338 -162 -534 -520 -608 -1110 -34 -266 -46 -674
-25 -863 58 -538 423 -1704 809 -2582 126 -286 266 -552 334 -635 23 -27 25
-28 26 -9 0 25 -157 603 -308 1134 -147 515 -191 727 -243 1155 -27 222 -40
904 -19 1009 38 195 182 423 350 557 99 79 206 127 315 140 120 15 363 6 435
-16 120 -37 254 -117 507 -303 208 -153 335 -235 445 -287 167 -78 178 -80
558 -80 376 0 397 3 545 74 109 52 213 138 354 294 232 258 328 335 475 384
77 26 90 27 276 26 166 0 207 -3 275 -22 134 -36 219 -83 311 -175 68 -68 89
-97 133 -186 97 -199 134 -412 133 -775 -1 -621 -145 -1475 -357 -2110 -121
-365 -438 -1048 -650 -1404 -149 -250 -319 -448 -429 -500 -45 -21 -60 -22
-185 -19 -132 3 -139 4 -205 37 -128 63 -213 168 -376 466 -124 228 -195 317
-276 351 -47 20 -313 19 -380 -1 -109 -32 -200 -121 -268 -261 -19 -39 -64
-156 -100 -260 -90 -264 -154 -397 -313 -652 -36 -57 -63 -106 -60 -109 11
-10 113 45 160 87 26 23 93 104 149 179 56 75 125 159 154 187 102 100 229
151 356 142 111 -8 175 -58 353 -273 282 -342 451 -445 755 -461 133 -8 210 7
294 56 258 147 575 607 891 1290 549 1185 1064 2916 1127 3787 19 272 -10 714
-63 963 -64 295 -165 500 -323 655 -140 137 -309 218 -523 250 -111 17 -749
20 -816 4z"/>
</g>
</svg>
