<svg width="91" height="91" viewBox="0 0 91 91" fill="none" xmlns="http://www.w3.org/2000/svg"><circle cx="45.5" cy="45.5" r="45.5" fill="#4D59A1"/><path d="M31.625 39.437c-.51 0-.925.42-.925.938 0 .517.414.937.925.937.51 0 .925-.42.925-.937a.932.932 0 0 0-.925-.938zm22.2 1.875H49.2v-4.687a.931.931 0 0 0-.925-.938h-5.55c-.51 0-.925.42-.925.938v4.687h-4.625c-.51 0-.925.42-.925.938v5.625a.93.93 0 0 0 .925.937H41.8V53.5a.93.93 0 0 0 .925.937h5.55c.51 0 .925-.42.925-.937v-4.688h4.625c.51 0 .925-.42.925-.937V42.25a.931.931 0 0 0-.925-.938zm-.925 5.625h-4.625c-.51 0-.925.42-.925.938v4.687h-3.7v-4.687a.931.931 0 0 0-.925-.938H38.1v-3.75h4.625c.51 0 .925-.42.925-.937v-4.688h3.7v4.688a.93.93 0 0 0 .925.937H52.9v3.75z" fill="#fff"/><path d="M59.78 24.882a9.125 9.125 0 0 1-5.03 1.506 9.186 9.186 0 0 1-7.09-3.355h-.001A2.803 2.803 0 0 0 45.5 22c-.829 0-1.616.377-2.16 1.033a9.186 9.186 0 0 1-7.09 3.355 9.125 9.125 0 0 1-5.03-1.506c-1.829-1.203-4.22.213-4.22 2.397V46.4c0 4.254 1.346 8.41 3.79 11.702 6.047 8.149 14.01 11.675 14.345 11.821a.915.915 0 0 0 .73 0c.336-.146 8.298-3.672 14.344-11.82C62.654 54.811 64 50.654 64 46.401V27.28c0-2.184-2.392-3.6-4.22-2.397zm-1.05 32.095c-5.029 6.776-11.624 10.269-13.232 11.053-1.608-.782-8.19-4.262-13.23-11.054-2.205-2.97-3.419-6.725-3.419-10.575V27.28c0-.714.777-1.21 1.363-.824a10.954 10.954 0 0 0 6.037 1.808c3.29 0 6.392-1.467 8.508-4.025a.955.955 0 0 1 .742-.363c.285 0 .548.129.742.363 2.117 2.558 5.218 4.025 8.508 4.025 2.151 0 4.239-.625 6.037-1.808.576-.38 1.363.1 1.363.824V46.4c0 3.85-1.214 7.605-3.419 10.576z" fill="#fff"/><path d="M59.909 29.502a.915.915 0 0 0-.843-.118 12.72 12.72 0 0 1-4.316.754c-3.18 0-6.246-1.19-8.634-3.35a.916.916 0 0 0-1.232 0c-2.388 2.16-5.454 3.35-8.634 3.35a12.72 12.72 0 0 1-4.316-.754.915.915 0 0 0-.843.118.942.942 0 0 0-.39.766v6.357a.93.93 0 0 0 .924.938c.511 0 .925-.42.925-.938v-5.09c1.208.318 2.448.478 3.7.478a14.67 14.67 0 0 0 9.25-3.298 14.67 14.67 0 0 0 9.25 3.298c1.253 0 2.492-.16 3.7-.478v14.866c0 3.043-.95 5.997-2.676 8.32-3.498 4.715-7.77 7.635-10.265 9.072-2.515-1.456-6.814-4.398-10.283-9.07-1.725-2.325-2.676-5.28-2.676-8.322v-2.276a.931.931 0 0 0-.925-.938c-.51 0-.925.42-.925.938V46.4c0 3.446 1.083 6.802 3.048 9.448 3.89 5.241 8.758 8.415 11.314 9.84a.915.915 0 0 0 .889 0c2.536-1.404 7.376-4.55 11.3-9.841 1.967-2.645 3.049-6 3.049-9.447V30.268a.941.941 0 0 0-.391-.766z" fill="#fff"/></svg>