<svg width="91" height="91" viewBox="0 0 91 91" fill="none" xmlns="http://www.w3.org/2000/svg"><circle cx="45.5" cy="45.5" r="45.5" fill="#4D59A1"/><path d="M31.101 69.998a.888.888 0 0 1-.526-.172.903.903 0 0 1-.355-.882l2.766-16.247L21.27 41.193a.908.908 0 0 1-.226-.924.899.899 0 0 1 .723-.614l16.19-2.37 7.241-14.782a.89.89 0 0 1 1.604 0l7.24 14.782 16.191 2.37a.905.905 0 0 1 .497 1.537L59.014 52.7l2.765 16.246a.907.907 0 0 1-.355.882.883.883 0 0 1-.943.068L46 62.225l-14.483 7.67a.897.897 0 0 1-.416.103zm-7.283-28.822l10.754 10.562c.21.206.307.506.257.798l-2.54 14.912 13.295-7.04a.886.886 0 0 1 .833 0l13.292 7.04-2.538-14.912a.907.907 0 0 1 .257-.798l10.754-10.562L53.32 39a.895.895 0 0 1-.674-.493L46 24.94l-6.647 13.568a.895.895 0 0 1-.674.493l-14.861 2.175z" fill="#fff"/></svg>