<svg width="91" height="91" viewBox="0 0 91 91" fill="none" xmlns="http://www.w3.org/2000/svg"><circle cx="45.5" cy="45.5" r="45.5" fill="#4D59A1"/><path d="M60.7 53.235a.843.843 0 0 0 .846-.84.843.843 0 0 0-.846-.84.843.843 0 0 0-.845.84c0 .464.378.84.845.84zm-32.195 0a.843.843 0 0 0 .846-.84.843.843 0 0 0-.846-.84.843.843 0 0 0-.846.84c0 .464.379.84.846.84z" fill="#fff"/><path d="M65.154 65.32h-7.263l-.044-20.641a.843.843 0 0 0-.846-.838h-.002a.843.843 0 0 0-.844.842l.044 20.637h-2.457l-.021-9.184a.843.843 0 0 0-.846-.838h-.002a.843.843 0 0 0-.844.842l.022 9.18h-2.054V54.204c2.394-.21 4.277-2.164 4.277-4.537v-8.14a9.064 9.064 0 0 0-.806-3.735 7.031 7.031 0 0 1 4.422 1.933c1.309 1.255 2.032 2.924 2.035 4.7l.016 4.78c.001.464.38.838.846.838h.003a.843.843 0 0 0 .843-.843l-.016-4.779c-.005-2.234-.911-4.33-2.552-5.904a8.658 8.658 0 0 0-3.265-1.969 4.417 4.417 0 0 0 1.394-3.227c-.006-2.448-2.012-4.435-4.476-4.435h-.01a4.516 4.516 0 0 0-2.063.505.837.837 0 0 0-.357 1.133.849.849 0 0 0 1.141.355c.398-.207.83-.312 1.283-.313 1.538 0 2.787 1.234 2.79 2.758a2.777 2.777 0 0 1-2.778 2.77.823.823 0 0 0-.107.008l-.135.006a9.625 9.625 0 0 0-4.892-3.477 4.902 4.902 0 0 0 1.694-3.703c0-2.717-2.226-4.928-4.962-4.928-2.737 0-4.963 2.21-4.963 4.928 0 1.546.722 2.928 1.848 3.832a9.612 9.612 0 0 0-4.507 3.344 8.97 8.97 0 0 0-.59-.008l-.047-.002c-1.535 0-2.784-1.24-2.784-2.764 0-1.525 1.25-2.765 2.784-2.765.464 0 .923.116 1.327.334a.85.85 0 0 0 1.148-.337.837.837 0 0 0-.34-1.139 4.507 4.507 0 0 0-2.135-.538c-2.468 0-4.476 1.994-4.476 4.445 0 1.334.597 2.532 1.537 3.348-3.198 1.224-5.465 4.242-5.465 7.761v4.764c0 .464.379.84.846.84a.843.843 0 0 0 .846-.84V44.44c0-3.483 2.8-6.35 6.355-6.639a9.065 9.065 0 0 0-.802 3.727v8.14c0 2.42 1.958 4.404 4.42 4.547V65.32h-2.305v-9.182a.843.843 0 0 0-.846-.84.843.843 0 0 0-.846.84v9.182h-2.08V44.69a.843.843 0 0 0-.845-.84.843.843 0 0 0-.846.84v20.63h-6.71a.843.843 0 0 0-.846.84c0 .464.379.84.846.84h40.308a.843.843 0 0 0 .846-.84.843.843 0 0 0-.846-.84zM41.051 28.928c0-1.791 1.467-3.248 3.27-3.248 1.804 0 3.271 1.457 3.271 3.248 0 1.79-1.467 3.248-3.27 3.248-1.804 0-3.271-1.457-3.271-3.248zm8.1 12.042a.843.843 0 0 0-.846.84v23.51h-3.013V53.634a.843.843 0 0 0-.846-.84.843.843 0 0 0-.846.84V65.32h-2.585V41.81a.843.843 0 0 0-.846-.84.843.843 0 0 0-.846.84v10.72c-1.528-.138-2.727-1.369-2.727-2.863v-8.14c0-1.454.425-2.869 1.231-4.092 1.476-2.241 4.004-3.58 6.762-3.58 2.762 0 5.292 1.342 6.767 3.59a7.423 7.423 0 0 1 1.226 4.082v8.14c0 1.448-1.126 2.648-2.585 2.847V41.81a.843.843 0 0 0-.846-.84z" fill="#fff"/></svg>