<svg width="91" height="91" viewBox="0 0 91 91" fill="none" xmlns="http://www.w3.org/2000/svg"><circle cx="45.5" cy="45.5" r="45.5" fill="#4D59A1"/><path d="M27.7 46.77a.961.961 0 0 0-.958.964c0 .533.429.965.957.965a.961.961 0 0 0 .957-.965.961.961 0 0 0-.957-.965z" fill="#fff"/><path d="M70 50.147a4.35 4.35 0 0 0-1.603-3.377 4.366 4.366 0 0 0 1.544-4.1c-.332-2.065-2.236-3.62-4.427-3.62h-9.116l.283-.86c1.622-4.905.116-10.147-3.454-13.213-1.994-1.735-5.396-1.156-6.44 1.713a.973.973 0 0 0-.015.622c.795 2.55.806 4.265.039 5.918-.796 1.715-2.508 3.515-5.724 6.02-.772.602-1.447.969-2.1 1.324-1.028.56-2.004 1.092-3.013 2.335h-3.49v-.965a.961.961 0 0 0-.957-.965h-9.57a.961.961 0 0 0-.957.965v25.091a.96.96 0 0 0 .957.965h9.57a.961.961 0 0 0 .957-.965V64.14h5.368a15.084 15.084 0 0 0 10.1 3.86h12c2.38 0 4.306-1.942 4.306-4.343 0-.892-.269-1.722-.728-2.412h.25c2.38 0 4.306-1.942 4.306-4.343a4.343 4.343 0 0 0-.917-2.674A4.34 4.34 0 0 0 70 50.147zM30.57 66.07h-7.656V42.91h7.656v23.16zm35.123-13.51h-9.187a.961.961 0 0 0-.957.965.96.96 0 0 0 .957.965h7.273a2.405 2.405 0 0 1 2.393 2.412 2.401 2.401 0 0 1-2.393 2.413h-7.273a.961.961 0 0 0-.957.965.96.96 0 0 0 .957.965h3.445a2.405 2.405 0 0 1 2.393 2.412 2.401 2.401 0 0 1-2.393 2.413h-12a13.19 13.19 0 0 1-9.075-3.6.953.953 0 0 0-.653-.26h-5.739V44.84h3.959c.304 0 .59-.147.77-.394.864-1.182 1.627-1.598 2.684-2.173.686-.374 1.464-.798 2.36-1.495 6.552-5.104 8.052-8.23 6.446-13.696.635-1.23 2.218-1.562 3.342-.583 3.05 2.689 4.158 7.038 2.82 11.081l-.485 1.47h-1.224a.961.961 0 0 0-.957.964c0 .533.429.965.957.965h12.358c1.263 0 2.354.86 2.538 2a2.407 2.407 0 0 1-2.359 2.825h-9.187a.961.961 0 0 0-.957.965c0 .533.428.966.957.966h9.188a2.405 2.405 0 0 1 2.392 2.412 2.401 2.401 0 0 1-2.393 2.412z" fill="#fff"/><path d="M27.7 50.63a.961.961 0 0 0-.958.965v9.65c0 .533.429.965.957.965a.961.961 0 0 0 .957-.965v-9.65a.961.961 0 0 0-.957-.965z" fill="#fff"/></svg>