<svg width="91" height="91" viewBox="0 0 91 91" fill="none" xmlns="http://www.w3.org/2000/svg"><circle cx="45.5" cy="45.5" r="45.5" fill="#4D59A1"/><path d="M63.29 53.646l-16.999 2.936-4.828-4.794a.856.856 0 0 0-.606-.25h-8.571a.853.853 0 0 0-.857-.85H22v1.701h5.143v11.915H22v1.702h9.429c.474 0 .857-.38.857-.851h2.369l9.164 4.55a2.819 2.819 0 0 0 2.664-.085l18.699-10.83a2.77 2.77 0 0 0 .39-4.53 2.81 2.81 0 0 0-2.282-.614zM30.571 64.304h-1.714V52.389h1.714v11.915zm33.747-6.985l-18.699 10.83a1.091 1.091 0 0 1-1.033.033l-9.345-4.639a.86.86 0 0 0-.384-.09h-2.571V53.24h8.216l6.754 6.705c.291.29.458.69.458 1.1 0 .858-.703 1.556-1.567 1.556-.412 0-.816-.166-1.108-.455l-4.433-4.402-1.212 1.203 4.433 4.402c.62.615 1.444.954 2.32.954 1.809 0 3.282-1.462 3.282-3.258a3.23 3.23 0 0 0-.961-2.304l-.695-.689 15.81-2.73c.318-.057.64.031.886.237a1.074 1.074 0 0 1-.151 1.759zM70 26.858v-1.702h-5.384c-.156-.16-.373 0-.616 0h-3.429c-.474 0-.857 0-.857.851h-2.369l-9.164-4.68c-.85-.422-1.846-.456-2.664.018L26.818 32.143a2.759 2.759 0 0 0-1.39 2.386c0 .823.365 1.59.998 2.12a2.805 2.805 0 0 0 2.284.606l16.998-2.936 4.828 4.925c.161.159.379.38.607.38h8.571s.383.851.857.851H70v-1.702h-5.143V26.858H70zM51.498 37.922l-6.753-6.836c-.296-.294-.46-.751-.46-1.166 0-.86.704-1.59 1.568-1.59.418 0 .811.145 1.108.44l4.433 4.392 1.212-1.208-4.432-4.401a3.268 3.268 0 0 0-2.321-.957c-1.809 0-3.281 1.462-3.281 3.258 0 .869.34 1.687.96 2.304l.694.688-15.81 2.73a1.09 1.09 0 0 1-.887-.237 1.078 1.078 0 0 1 .153-1.76l18.699-10.83a1.094 1.094 0 0 1 1.033-.032l9.345 4.771c.119.059.251.221.384.221h2.571v10.213h-8.216zm9.93-11.064h1.715v11.915h-1.714V26.858zM46 41.367c-1.396-1.214-3.579-1.182-4.935.099A3.335 3.335 0 0 0 40 43.907c0 .925.378 1.79 1.065 2.44l4.344 4.106a.86.86 0 0 0 1.182 0l4.343-4.105A3.332 3.332 0 0 0 52 43.908c0-.926-.378-1.792-1.065-2.442v-.001c-1.357-1.281-3.54-1.31-4.935-.098zm3.753 3.747L46 48.661l-3.753-3.547a1.657 1.657 0 0 1-.533-1.208c0-.453.19-.883.533-1.208.37-.349.855-.523 1.34-.523.484 0 .97.174 1.338.523l.483.456a.863.863 0 0 0 1.182 0l.482-.456a1.977 1.977 0 0 1 2.679 0c.345.325.535.755.535 1.208 0 .454-.19.883-.533 1.208z" fill="#fff"/><path d="M36.054 38.913l-1.421-.952c-.342.502-.652 1.03-.92 1.567l1.535.758c.234-.47.506-.932.806-1.373zm-3.481 9.455c.125.594.29 1.183.492 1.748l1.616-.567a11.878 11.878 0 0 1-.43-1.53l-1.678.35zm-.033-5.41l1.683.326c.102-.519.24-1.034.41-1.533l-1.624-.547c-.194.57-.351 1.16-.469 1.754zm-.254 2.626c0 .33.013.66.036.985l1.709-.12a11.844 11.844 0 0 1-.01-1.589l-1.71-.104c-.017.274-.025.549-.025.828zm25.032-3.974c.178.502.322 1.016.43 1.529l1.678-.346a13.78 13.78 0 0 0-.49-1.748l-1.618.565zm-1.371 10.636l1.42.954c.34-.502.652-1.028.921-1.568l-1.535-.758c-.235.472-.507.933-.806 1.372zm1.42-2.836l1.625.547c.195-.57.352-1.16.47-1.755l-1.683-.326c-.103.52-.241 1.035-.412 1.534zm2.347-3.826c.001-.335-.012-.667-.036-.996l-1.709.124a11.623 11.623 0 0 1 .01 1.588l1.71.104c.017-.273.025-.547.025-.82z" fill="#fff"/></svg>