<svg width="91" height="91" viewBox="0 0 91 91" fill="none" xmlns="http://www.w3.org/2000/svg"><circle cx="45.5" cy="45.5" r="45.5" fill="#4D59A1"/><path d="M63.424 32.783h-3.107v-3.085a1.28 1.28 0 0 0-1.284-1.275h-4.634a1.28 1.28 0 0 0-1.284 1.275v3.085H50a1.28 1.28 0 0 0-1.302 1.257v4.619a1.28 1.28 0 0 0 1.284 1.276h3.107v3.085a1.28 1.28 0 0 0 1.284 1.275h4.634a1.28 1.28 0 0 0 1.284-1.275v-3.085h3.134a1.28 1.28 0 0 0 1.284-1.275v-4.602a1.28 1.28 0 0 0-1.284-1.275zm-4.005 5.35c-.496 0-.898.4-.898.892v3.469h-3.592v-3.451a.895.895 0 0 0-.898-.892h-3.538v-3.567h3.493a.895.895 0 0 0 .898-.891v-3.487h3.592v3.469c0 .492.402.892.898.892h3.493l.045 3.566h-3.493z" fill="#fff"/><path d="M69 36.359c.01-6.671-5.37-12.117-12.087-12.234-5.387-2.836-11.861.678-13.72 1.783-1.688-1.034-7.184-4.021-12.194-2.47-2.955 1.008-5.218 3.362-6.636 7.071-3.996 10.513 1.544 27.643 6.968 34.322 1.688 2.095 3.304 3.138 4.795 3.138.152.011.305.011.458 0 3.367-.481 5.468-7.285 6.564-12.305 1.095 5.02 3.197 11.824 6.564 12.305 4.948.687 10.596-10.316 12.706-20.803A12.205 12.205 0 0 0 69 36.36zM50.008 66.177c-2.586-.366-5.028-9.38-5.935-15.667a.895.895 0 0 0-.898-.892c-.496 0-.898.4-.898.892-.898 6.242-3.35 15.293-5.936 15.667-.898.152-2.262-.758-3.591-2.46-5.244-6.457-10.354-22.989-6.708-32.575 1.203-3.174 3.053-5.162 5.477-5.92 5.029-1.57 11.09 2.514 11.153 2.559a.903.903 0 0 0 1.015 0c.054 0 4.49-2.987 8.88-2.898-6.368 2.322-9.634 9.332-7.295 15.656 2.253 6.093 8.917 9.366 15.162 7.448-2.317 10.263-7.606 18.591-10.426 18.19zM67.204 36.36c-.005 5.751-4.696 10.414-10.488 10.424-5.797.005-10.501-4.658-10.506-10.415-.005-5.757 4.69-10.428 10.488-10.433 5.797-.005 10.501 4.658 10.506 10.415v.009z" fill="#fff"/></svg>