<svg width="30" height="30" viewBox="0 0 30 30" fill="none" xmlns="http://www.w3.org/2000/svg"><circle cx="15" cy="15" r="15" fill="#4D59A1"/><path d="M9.44 12.699c.19.136.761.541 1.716 1.214.954.674 1.685 1.192 2.193 1.556.056.04.174.126.355.26a9.187 9.187 0 0 0 .888.601c.17.102.33.179.481.23.15.05.29.076.419.076h.016c.129 0 .268-.025.419-.077.15-.05.311-.127.481-.23a8.964 8.964 0 0 0 .888-.6c.18-.134.3-.22.355-.26l3.918-2.77a4.02 4.02 0 0 0 1.02-1.049c.274-.409.411-.838.411-1.286 0-.375-.133-.696-.398-.963A1.282 1.282 0 0 0 21.661 9H9.339c-.43 0-.76.148-.992.443-.231.296-.347.665-.347 1.108 0 .358.154.746.46 1.163.307.418.634.746.98.985z" fill="#fff"/><path d="M22.163 13.61a174.109 174.109 0 0 0-4.169 2.941 18.9 18.9 0 0 1-.774.558c-.198.134-.462.27-.79.41-.33.139-.637.208-.921.208h-.017c-.285 0-.592-.07-.921-.209a4.75 4.75 0 0 1-.791-.409c-.198-.133-.456-.32-.774-.558-.754-.562-2.14-1.543-4.16-2.94A4.457 4.457 0 0 1 8 12.869v6.767c0 .375.131.696.393.963.263.268.578.401.946.401h12.322c.368 0 .683-.133.946-.4a1.33 1.33 0 0 0 .393-.964V12.87a4.64 4.64 0 0 1-.837.742z" fill="#fff"/></svg>