<svg width="30" height="30" viewBox="0 0 30 30" fill="none" xmlns="http://www.w3.org/2000/svg"><circle cx="15" cy="15" r="15" fill="#4D59A1"/><path d="M19.74 10.982c-.057-.213-.172-.44-.258-.64C18.461 7.882 16.228 7 14.426 7 12.013 7 9.355 8.621 9 11.963v.683c0 .029.01.285.024.413.199 1.592 1.453 3.285 2.39 4.878 1.007 1.706 2.053 3.385 3.09 5.063.638-1.095 1.274-2.204 1.899-3.271.17-.313.367-.626.538-.925.113-.199.33-.398.43-.583C18.377 16.372 20 14.51 20 12.675v-.754c0-.199-.246-.896-.26-.939zm-5.27 3.428c-.71 0-1.486-.356-1.87-1.337-.056-.156-.052-.47-.052-.498v-.44c0-1.252 1.06-1.821 1.983-1.821 1.136 0 2.014.91 2.014 2.048s-.94 2.048-2.075 2.048z" fill="#fff"/></svg>